<svg xmlns="http://www.w3.org/2000/svg" version="1.0" preserveAspectRatio="xMidYMid meet" viewBox="165.6 55.34 118.47 311.66">
<metadata>
Created by potrace 1.10, written by Peter Selinger 2001-2011
</metadata>
<g transform="translate(0.000000,450.000000) scale(0.050000,-0.050000)" fill="#000000" stroke="none" data-darkreader-inline-fill="" data-darkreader-inline-stroke="" style="--darkreader-inline-fill: #0d0d0d; --darkreader-inline-stroke: none;">
<path d="M4287 7879 c-941 -162 -1301 -1325 -630 -2041 l136 -146 61 90 62 89 -98 95 c-735 717 -6 1995 965 1695 901 -279 963 -1542 96 -1946 l-139 -64 0 -86 c0 -109 19 -109 233 -4 766 380 949 1381 360 1967 -273 272 -690 412 -1046 351z"/>
<path d="M4409 7471 c-115 -115 -5 -307 143 -250 159 60 125 299 -42 299 -28 0 -74 -22 -101 -49z"/>
<path d="M4580 7160 c-16 -11 -86 -38 -154 -61 -463 -155 -512 -599 -84 -762 l101 -38 59 63 c75 80 75 79 -36 138 -200 107 -209 202 -38 368 186 179 292 383 152 292z"/>
<path d="M4680 6884 c0 -12 9 -27 20 -34 11 -7 38 -48 60 -91 103 -201 22 -318 -452 -653 -669 -474 -708 -1050 -101 -1499 149 -111 153 -110 153 29 0 110 -4 120 -82 195 -284 272 -201 533 297 932 433 347 494 432 495 687 0 181 -56 308 -171 391 -68 48 -219 78 -219 43z"/>
<path d="M4505 5633 l-85 -92 0 -701 c0 -385 7 -700 15 -700 28 0 146 80 156 105 5 14 7 353 4 753 l-5 727 -85 -92z"/>
<path d="M5030 5440 c-32 -21 -84 -44 -115 -51 l-56 -12 76 -86 c249 -284 253 -644 12 -912 -108 -119 -234 -208 -556 -391 -327 -185 -494 -329 -593 -512 -202 -373 0 -877 432 -1079 150 -70 172 -67 103 16 -284 338 -167 572 517 1032 895 602 1041 1266 418 1889 -164 164 -156 160 -238 106z"/>
<path d="M4535 3143 c-117 -76 -114 -55 -114 -798 l-1 -685 90 0 90 0 0 760 c0 418 -2 760 -5 760 -3 0 -30 -17 -60 -37z"/>
</g>
</svg>